<svg width="80" height="80" viewBox="0 0 80 80" fill="none" xmlns="http://www.w3.org/2000/svg">
<path d="M23.2 0H56.8C69.6 0 80 10.4 80 23.2V56.8C80 62.953 77.5557 68.854 73.2049 73.2049C68.854 77.5557 62.953 80 56.8 80H23.2C10.4 80 0 69.6 0 56.8V23.2C0 17.047 2.44428 11.146 6.79512 6.79512C11.146 2.44428 17.047 0 23.2 0ZM22.4 8C18.5809 8 14.9182 9.51714 12.2177 12.2177C9.51714 14.9182 8 18.5809 8 22.4V57.6C8 65.56 14.44 72 22.4 72H57.6C61.4191 72 65.0818 70.4829 67.7823 67.7823C70.4829 65.0818 72 61.4191 72 57.6V22.4C72 14.44 65.56 8 57.6 8H22.4ZM61 14C62.3261 14 63.5979 14.5268 64.5355 15.4645C65.4732 16.4021 66 17.6739 66 19C66 20.3261 65.4732 21.5979 64.5355 22.5355C63.5979 23.4732 62.3261 24 61 24C59.6739 24 58.4021 23.4732 57.4645 22.5355C56.5268 21.5979 56 20.3261 56 19C56 17.6739 56.5268 16.4021 57.4645 15.4645C58.4021 14.5268 59.6739 14 61 14ZM40 20C45.3043 20 50.3914 22.1071 54.1421 25.8579C57.8929 29.6086 60 34.6957 60 40C60 45.3043 57.8929 50.3914 54.1421 54.1421C50.3914 57.8929 45.3043 60 40 60C34.6957 60 29.6086 57.8929 25.8579 54.1421C22.1071 50.3914 20 45.3043 20 40C20 34.6957 22.1071 29.6086 25.8579 25.8579C29.6086 22.1071 34.6957 20 40 20ZM40 28C36.8174 28 33.7652 29.2643 31.5147 31.5147C29.2643 33.7652 28 36.8174 28 40C28 43.1826 29.2643 46.2348 31.5147 48.4853C33.7652 50.7357 36.8174 52 40 52C43.1826 52 46.2348 50.7357 48.4853 48.4853C50.7357 46.2348 52 43.1826 52 40C52 36.8174 50.7357 33.7652 48.4853 31.5147C46.2348 29.2643 43.1826 28 40 28Z" fill="#C14EC7"/>
</svg>
