<svg width="45" height="50" viewBox="0 0 45 50" fill="none" xmlns="http://www.w3.org/2000/svg">
<path d="M13.05 0H31.95C39.15 0 45 6.5 45 14.5V35.5C45 39.3456 43.6251 43.0338 41.1777 45.7531C38.7304 48.4723 35.4111 50 31.95 50H13.05C5.85 50 0 43.5 0 35.5V14.5C0 10.6544 1.37491 6.96623 3.82226 4.24695C6.26961 1.52767 9.58893 0 13.05 0ZM12.6 5C10.4517 5 8.39148 5.94821 6.87244 7.63604C5.35339 9.32387 4.5 11.6131 4.5 14V36C4.5 40.975 8.1225 45 12.6 45H32.4C34.5483 45 36.6085 44.0518 38.1276 42.364C39.6466 40.6761 40.5 38.3869 40.5 36V14C40.5 9.025 36.8775 5 32.4 5H12.6ZM34.3125 8.75C35.0584 8.75 35.7738 9.07924 36.3012 9.66529C36.8287 10.2513 37.125 11.0462 37.125 11.875C37.125 12.7038 36.8287 13.4987 36.3012 14.0847C35.7738 14.6708 35.0584 15 34.3125 15C33.5666 15 32.8512 14.6708 32.3238 14.0847C31.7963 13.4987 31.5 12.7038 31.5 11.875C31.5 11.0462 31.7963 10.2513 32.3238 9.66529C32.8512 9.07924 33.5666 8.75 34.3125 8.75ZM22.5 12.5C25.4837 12.5 28.3452 13.817 30.455 16.1612C32.5647 18.5054 33.75 21.6848 33.75 25C33.75 28.3152 32.5647 31.4946 30.455 33.8388C28.3452 36.183 25.4837 37.5 22.5 37.5C19.5163 37.5 16.6548 36.183 14.545 33.8388C12.4353 31.4946 11.25 28.3152 11.25 25C11.25 21.6848 12.4353 18.5054 14.545 16.1612C16.6548 13.817 19.5163 12.5 22.5 12.5ZM22.5 17.5C20.7098 17.5 18.9929 18.2902 17.727 19.6967C16.4612 21.1032 15.75 23.0109 15.75 25C15.75 26.9891 16.4612 28.8968 17.727 30.3033C18.9929 31.7098 20.7098 32.5 22.5 32.5C24.2902 32.5 26.0071 31.7098 27.273 30.3033C28.5388 28.8968 29.25 26.9891 29.25 25C29.25 23.0109 28.5388 21.1032 27.273 19.6967C26.0071 18.2902 24.2902 17.5 22.5 17.5Z" fill="white"/>
</svg>
