<svg width="45" height="50" viewBox="0 0 45 50" fill="none" xmlns="http://www.w3.org/2000/svg">
<path d="M35.7015 7.83337C33.7397 5.66565 32.6586 2.88179 32.6594 3.75914e-05H23.7915V34.4445C23.7231 36.3084 22.91 38.074 21.5236 39.3693C20.1371 40.6646 18.2854 41.3887 16.3584 41.3889C12.2832 41.3889 8.8967 38.1667 8.8967 34.1667C8.8967 29.3889 13.6607 25.8056 18.5683 27.2778V18.5C8.6671 17.2223 1.1158e-05 24.6667 1.1158e-05 34.1667C1.1158e-05 43.4167 7.92093 50 16.3297 50C25.3412 50 32.6594 42.9167 32.6594 34.1667V16.6945C36.2554 19.1941 40.5728 20.5352 45 20.5278V11.9445C45 11.9445 39.6046 12.1945 35.7015 7.83337Z" fill="white"/>
</svg>
