<svg width="80" height="80" viewBox="0 0 80 80" fill="none" xmlns="http://www.w3.org/2000/svg">
<path d="M63.4694 12.5333C59.9818 9.06499 58.0598 4.61081 58.0612 0H42.2959V55.1111C42.1743 58.0934 40.7289 60.9183 38.2641 62.9908C35.7993 65.0634 32.5074 66.2218 29.0816 66.2222C21.8367 66.2222 15.8163 61.0667 15.8163 54.6667C15.8163 47.0222 24.2857 41.2889 33.0102 43.6444V29.6C15.4082 27.5556 0 39.4667 0 54.6667C0 69.4667 14.0816 80 29.0306 80C45.051 80 58.0612 68.6667 58.0612 54.6667V26.7111C64.4541 30.7104 72.1294 32.8562 80 32.8444V19.1111C80 19.1111 70.4082 19.5111 63.4694 12.5333Z" fill="#C14EC7"/>
</svg>
